<svg id="Escudo" xmlns="http://www.w3.org/2000/svg" xmlns:xlink="http://www.w3.org/1999/xlink" viewBox="0 0 211.64 286.8"><defs><style>.cls-1{fill:#fff;stroke-miterlimit:10;stroke-width:5px;stroke:url(#Degradado_CCP);}.cls-2{fill:#3d1079;}.cls-3{fill:#dc1425;}.cls-4{fill:#ffff01;}</style><linearGradient id="Degradado_CCP" x1="145.02" y1="252.9" x2="356.66" y2="252.9" gradientUnits="userSpaceOnUse"><stop offset="0" stop-color="#beac83"/><stop offset="0.4" stop-color="#a8835a"/><stop offset="0.79" stop-color="#956137"/><stop offset="1" stop-color="#8e542a"/></linearGradient></defs><path class="cls-1" d="M160.94,177.53V151s60,6.22,89.06-37.29c7.11,8.58,25.09,27.78,54.63,35.37a100.89,100.89,0,0,0,32.58,2.84v25.64h17v53.1H339.47s5.81,100-89.47,162.71a186.12,186.12,0,0,1-56.73-53.78c-30.59-44.85-32.55-90.68-32.33-108.93h-13l-.4-53.52Z" transform="translate(-145.02 -109.5)"/><path class="cls-2" d="M169,178h70.63L250,158.38,260.27,178H330.9v-21.1s-55.1.26-80.9-30.87c0,0-19.38,28.1-81,30.47Z" transform="translate(-145.02 -109.5)"/><path class="cls-3" d="M243.46,378.9V230.31H169S167.64,314.24,243.46,378.9Z" transform="translate(-145.02 -109.5)"/><path class="cls-3" d="M257.27,378.9V230.31h74.45S333.09,314.24,257.27,378.9Z" transform="translate(-145.02 -109.5)"/><path class="cls-2" d="M197,191.8v6.09h-2.17a9.59,9.59,0,0,0-1.34-3,4.65,4.65,0,0,0-1.89-1.62,6.35,6.35,0,0,0-2.6-.48,6.07,6.07,0,0,0-4,1.5,10,10,0,0,0-2.78,4.53,23.28,23.28,0,0,0-1,7.31,27.94,27.94,0,0,0,.84,7.35,9.64,9.64,0,0,0,2.46,4.59,5.59,5.59,0,0,0,4,1.55,7.07,7.07,0,0,0,2.94-.52,4.63,4.63,0,0,0,1.92-1.64,12.7,12.7,0,0,0,1.49-3.29H197v6.28a32.29,32.29,0,0,1-4.23.83,38.54,38.54,0,0,1-4.75.27q-5.58,0-8.44-3.78t-2.86-11.27a21.37,21.37,0,0,1,1.48-8.24,11.53,11.53,0,0,1,11.24-7.4,32.4,32.4,0,0,1,3.7.2A30.31,30.31,0,0,1,197,191.8Z" transform="translate(-145.02 -109.5)"/><path class="cls-2" d="M261,191.8v6.09h-2.17a9.59,9.59,0,0,0-1.34-3,4.65,4.65,0,0,0-1.89-1.62,6.34,6.34,0,0,0-2.59-.48,6.08,6.08,0,0,0-4,1.5,10,10,0,0,0-2.77,4.53,23,23,0,0,0-1,7.31,27.94,27.94,0,0,0,.84,7.35,9.81,9.81,0,0,0,2.46,4.59,5.59,5.59,0,0,0,4,1.55,7.07,7.07,0,0,0,2.94-.52,4.59,4.59,0,0,0,1.93-1.64,12.72,12.72,0,0,0,1.48-3.29H261v6.28a32.46,32.46,0,0,1-4.22.83,38.71,38.71,0,0,1-4.76.27q-5.58,0-8.44-3.78t-2.86-11.27a21.19,21.19,0,0,1,1.49-8.24,11.51,11.51,0,0,1,11.24-7.4,32.34,32.34,0,0,1,3.69.2A30,30,0,0,1,261,191.8Z" transform="translate(-145.02 -109.5)"/><path class="cls-2" d="M311.34,215.6a12.56,12.56,0,0,0,.14,2.07,3.39,3.39,0,0,0,.44,1.22,2.09,2.09,0,0,0,.8.7,7.42,7.42,0,0,0,1.59.49v1.08h-9.65v-1.08a4.3,4.3,0,0,0,1.82-.78,2.12,2.12,0,0,0,.61-1.22,15.43,15.43,0,0,0,.14-2.41v-19a16.23,16.23,0,0,0-.11-2.21,2.63,2.63,0,0,0-.36-1.07,1.82,1.82,0,0,0-.67-.62,7.8,7.8,0,0,0-1.43-.52v-1.07h10.9q5.15,0,7.66,2t2.51,6a10.21,10.21,0,0,1-.79,4.11,7.67,7.67,0,0,1-2.24,3,9.08,9.08,0,0,1-3.43,1.67,16.56,16.56,0,0,1-4.15.5c-1.63,0-2.89,0-3.78-.08Zm0-9.12h2.55a11,11,0,0,0,4.1-.65,4.86,4.86,0,0,0,2.47-2.15,8,8,0,0,0,.86-4,8.44,8.44,0,0,0-.51-3.15,5.12,5.12,0,0,0-1.4-2,5,5,0,0,0-2.12-1.09,10.76,10.76,0,0,0-2.68-.32q-2.17,0-3.27.09Z" transform="translate(-145.02 -109.5)"/><g id="layer1"><path class="cls-4" d="M250,151.47l-.89,2-2.18-.24,1.3,1.77-1.3,1.77,2.18-.24.89,2,.88-2,2.18.24L251.73,155l1.29-1.77-2.18.24Z" transform="translate(-145.02 -109.5)"/></g></svg>